<svg width="17" height="17" viewBox="0 0 17 17" fill="none" xmlns="http://www.w3.org/2000/svg">
<path fill-rule="evenodd" clip-rule="evenodd" d="M8.59583 0C10.6208 0 10.9158 0.0108333 11.7692 0.05C12.6558 0.0908333 13.2617 0.231667 13.7917 0.4375C14.3479 0.646561 14.8519 0.974464 15.2683 1.39833C15.6922 1.81481 16.0201 2.31875 16.2292 2.875C16.435 3.405 16.5758 4.01083 16.6167 4.8975C16.6567 5.78667 16.6667 6.07 16.6667 8.33333V8.4C16.6667 10.6025 16.6567 10.8892 16.6167 11.7692C16.5758 12.6558 16.435 13.2617 16.2292 13.7917C16.0201 14.3479 15.6922 14.8519 15.2683 15.2683C14.8519 15.6922 14.3479 16.0201 13.7917 16.2292C13.2617 16.435 12.6558 16.5758 11.7692 16.6167C10.88 16.6567 10.5967 16.6667 8.33333 16.6667H8.26667C6.06417 16.6667 5.7775 16.6567 4.8975 16.6167C4.01083 16.5758 3.405 16.435 2.875 16.2292C2.31875 16.0201 1.81481 15.6922 1.39833 15.2683C0.974464 14.8519 0.646561 14.3479 0.4375 13.7917C0.231667 13.2617 0.0908333 12.6558 0.05 11.7692C0.0108333 10.9158 0 10.62 0 8.59583V8.07083C0 6.04583 0.0108333 5.75083 0.05 4.8975C0.0908333 4.01083 0.231667 3.405 0.4375 2.875C0.646561 2.31875 0.974464 1.81481 1.39833 1.39833C1.81587 0.97737 2.32004 0.652345 2.87583 0.445833C3.40583 0.24 4.01167 0.0991666 4.89833 0.0583333C5.75083 0.0108333 6.04667 0 8.07083 0H8.59583ZM8.52833 1.50167H8.13833C6.09167 1.50167 5.81833 1.51083 4.96583 1.55C4.15333 1.5875 3.7125 1.7225 3.41833 1.83667C3.02917 1.98833 2.75167 2.16833 2.46 2.46C2.16833 2.75167 1.98833 3.02917 1.83667 3.41833C1.7225 3.7125 1.58667 4.15333 1.55 4.96583C1.51083 5.81833 1.50167 6.09167 1.50167 8.13833V8.52833C1.50167 10.575 1.51083 10.8483 1.55 11.7008C1.5875 12.5133 1.7225 12.9542 1.83667 13.2483C1.98833 13.6367 2.16917 13.915 2.46 14.2067C2.75167 14.4983 3.02917 14.6783 3.41833 14.83C3.7125 14.9442 4.15333 15.08 4.96583 15.1167C5.84417 15.1567 6.1075 15.165 8.33333 15.165H8.4C10.5642 15.165 10.8308 15.1567 11.7 15.1167C12.5133 15.0792 12.9542 14.9442 13.2483 14.83C13.6367 14.6783 13.915 14.4983 14.2067 14.2067C14.4983 13.915 14.6783 13.6375 14.83 13.2483C14.9442 12.9542 15.08 12.5133 15.1167 11.7008C15.1567 10.8217 15.165 10.5592 15.165 8.33333V8.26667C15.165 6.1025 15.1567 5.83583 15.1167 4.96667C15.0792 4.15333 14.9442 3.7125 14.83 3.41833C14.6965 3.05631 14.4835 2.72883 14.2067 2.46C13.9378 2.18322 13.6103 1.97022 13.2483 1.83667C12.9542 1.7225 12.5133 1.58667 11.7008 1.55C10.8483 1.51083 10.575 1.50167 8.52833 1.50167ZM8.33333 4.05417C8.89528 4.05417 9.45173 4.16485 9.9709 4.3799C10.4901 4.59495 10.9618 4.91015 11.3592 5.30751C11.7565 5.70486 12.0717 6.17659 12.2868 6.69577C12.5018 7.21494 12.6125 7.77138 12.6125 8.33333C12.6125 8.89528 12.5018 9.45173 12.2868 9.9709C12.0717 10.4901 11.7565 10.9618 11.3592 11.3592C10.9618 11.7565 10.4901 12.0717 9.9709 12.2868C9.45173 12.5018 8.89528 12.6125 8.33333 12.6125C7.19843 12.6125 6.11001 12.1617 5.30751 11.3592C4.50501 10.5567 4.05417 9.46824 4.05417 8.33333C4.05417 7.19843 4.50501 6.11001 5.30751 5.30751C6.11001 4.50501 7.19843 4.05417 8.33333 4.05417ZM8.33333 5.55583C7.59669 5.55583 6.89023 5.84846 6.36934 6.36934C5.84846 6.89023 5.55583 7.59669 5.55583 8.33333C5.55583 9.06997 5.84846 9.77644 6.36934 10.2973C6.89023 10.8182 7.59669 11.1108 8.33333 11.1108C9.06997 11.1108 9.77644 10.8182 10.2973 10.2973C10.8182 9.77644 11.1108 9.06997 11.1108 8.33333C11.1108 7.59669 10.8182 6.89023 10.2973 6.36934C9.77644 5.84846 9.06997 5.55583 8.33333 5.55583ZM12.7817 2.885C13.0469 2.885 13.3012 2.99036 13.4888 3.17789C13.6763 3.36543 13.7817 3.61978 13.7817 3.885C13.7817 4.15022 13.6763 4.40457 13.4888 4.59211C13.3012 4.77964 13.0469 4.885 12.7817 4.885C12.5164 4.885 12.2621 4.77964 12.0746 4.59211C11.887 4.40457 11.7817 4.15022 11.7817 3.885C11.7817 3.61978 11.887 3.36543 12.0746 3.17789C12.2621 2.99036 12.5164 2.885 12.7817 2.885Z" fill="url(#paint0_linear_410_1474)"/>
<defs>
<linearGradient id="paint0_linear_410_1474" x1="4.3274" y1="-4.3274" x2="20.9941" y2="12.3393" gradientUnits="userSpaceOnUse">
<stop stop-color="#0F172A"/>
<stop offset="0.5" stop-color="#0F172A"/>
<stop offset="1" stop-color="#172554"/>
</linearGradient>
</defs>
</svg>
