<svg width="15" height="16" viewBox="0 0 15 16" fill="none" xmlns="http://www.w3.org/2000/svg">
<path d="M7.005 11.3253C7.93026 11.3253 8.71211 11.0014 9.35055 10.3538C9.98898 9.70608 10.3174 8.9196 10.336 7.99433V4.66338H7.005C6.07973 4.68188 5.29326 5.01035 4.64557 5.64879C3.99789 6.28722 3.67404 7.06907 3.67404 7.99433C3.67404 8.9196 3.99789 9.70608 4.64557 10.3538C5.29326 11.0014 6.07973 11.3253 7.005 11.3253ZM6.35269 10.3954L8.90642 8.11925C8.98969 8.04522 9.01283 7.95732 8.97581 7.85554C8.9388 7.75377 8.86478 7.69362 8.75375 7.67512L6.75518 7.48081L7.94877 5.82921C7.97653 5.78295 7.99272 5.739 7.99735 5.69736C8.00197 5.65573 7.98578 5.6164 7.94877 5.57939C7.91176 5.53313 7.8655 5.51231 7.80998 5.51694C7.75446 5.52156 7.70357 5.54238 7.65731 5.57939L5.11746 7.85554C5.03418 7.92957 5.01105 8.01747 5.04806 8.11925C5.08507 8.22102 5.15909 8.28117 5.27013 8.29967L7.2687 8.49398L6.06123 10.1456C6.03347 10.1918 6.01959 10.2358 6.01959 10.2774C6.01959 10.3191 6.0381 10.3584 6.07511 10.3954C6.11212 10.4324 6.15607 10.4509 6.20696 10.4509C6.25785 10.4509 6.30642 10.4324 6.35269 10.3954ZM7.005 12.4356C6.48685 12.4356 5.99877 12.3546 5.54077 12.1927C5.08276 12.0308 4.66408 11.8018 4.28472 11.5057L3.52137 12.2691C3.46586 12.3246 3.4034 12.3662 3.33401 12.394C3.26461 12.4217 3.19291 12.4356 3.11888 12.4356C2.96159 12.4356 2.82974 12.3824 2.72333 12.276C2.61693 12.1696 2.56372 12.0377 2.56372 11.8804C2.56372 11.8064 2.5776 11.7347 2.60536 11.6653C2.63312 11.5959 2.67476 11.5335 2.73027 11.478L3.49362 10.7146C3.19753 10.3353 2.96853 9.91657 2.80661 9.45857C2.64469 9.00056 2.56372 8.51248 2.56372 7.99433C2.56372 6.75448 2.99397 5.7043 3.85447 4.8438C4.71497 3.98331 5.76514 3.55306 7.005 3.55306H11.4463V7.99433C11.4463 9.23419 11.016 10.2844 10.1555 11.1449C9.29503 12.0054 8.24486 12.4356 7.005 12.4356Z" fill="#10B981"/>
</svg>
